# xmcd
#
# Track frame offsets:
#	150
#	12288
#	22968
#	36346
#	47790
#	59898
#	72081
#	85691
#	97879
#	109233
#	122047
#	136342
#	147355
#	157130
#	170138
#	183309
#	194963
#	206492
#	217298
#	228769
#
# Disc length: 3211 seconds
#
# Revision: 0
# Processed by: cddbd v1.5.2PL0 Copyright (c) Steve Scherf et al.
# Submitted via: dBpowerAMP V4.0
#
DISCID=300c8914
DTITLE=Hank Williams - The Hillbilly Shakespeare [CD2)
DYEAR=2006
DGENRE=
TTITLE0=Cold Cold Heart
TTITLE1=Moanin' The Blues
TTITLE2=Too Many Parties, Too Many Pals
TTITLE3=My Son Calls Another Man Daddy
TTITLE4=I'm Sorry For You, My Friend
TTITLE5=Howlin' At The Moon
TTITLE6=Ramblin' Man
TTITLE7=Half As Much
TTITLE8=Baby, We're Really In Love
TTITLE9=Pictures From Life's Other Side
TTITLE10=Men With Broken Hearts
TTITLE11=Lonesome Whistle
TTITLE12=Honk Tonk Blues
TTITLE13=Jambalaya
TTITLE14=Hey, Good Lookin'
TTITLE15=Take These Chains From My Heart
TTITLE16=Settin' The Woods On Fire
TTITLE17=I'll Never Get Out Of This World Alive
TTITLE18=Kaw Liga
TTITLE19=Your Cheatin' Heart
EXTD=
EXTT0=
EXTT1=
EXTT2=
EXTT3=
EXTT4=
EXTT5=
EXTT6=
EXTT7=
EXTT8=
EXTT9=
EXTT10=
EXTT11=
EXTT12=
EXTT13=
EXTT14=
EXTT15=
EXTT16=
EXTT17=
EXTT18=
EXTT19=
PLAYORDER=
